%FSLAX34Y34*%
G04 Gerber Fmt 3.4, Leading zero omitted, Abs format*
G04 (created by PCBNEW (2014-01-30 BZR 4648)-product) date Tue Feb  4 18:51:26 2014*
%MOIN*%
G01*
G70*
G90*
G04 APERTURE LIST*
%ADD10C,0.013780*%
%ADD11C,0.011811*%
%ADD12C,0.023622*%
%ADD13C,0.086614*%
%ADD14C,0.078740*%
G04 APERTURE END LIST*
G54D10*
G54D11*
X8662Y6107D02*
X8662Y6698D01*
X8437Y6698D01*
X8381Y6670D01*
X8353Y6642D01*
X8324Y6585D01*
X8324Y6501D01*
X8353Y6445D01*
X8381Y6417D01*
X8437Y6389D01*
X8662Y6389D01*
X8128Y6698D02*
X7987Y6107D01*
X7875Y6529D01*
X7762Y6107D01*
X7621Y6698D01*
X7059Y6107D02*
X7256Y6389D01*
X7396Y6107D02*
X7396Y6698D01*
X7171Y6698D01*
X7115Y6670D01*
X7087Y6642D01*
X7059Y6585D01*
X7059Y6501D01*
X7087Y6445D01*
X7115Y6417D01*
X7171Y6389D01*
X7396Y6389D01*
X1754Y6107D02*
X2035Y6107D01*
X2035Y6698D01*
X1557Y6417D02*
X1360Y6417D01*
X1276Y6107D02*
X1557Y6107D01*
X1557Y6698D01*
X1276Y6698D01*
X1023Y6107D02*
X1023Y6698D01*
X882Y6698D01*
X798Y6670D01*
X742Y6614D01*
X714Y6557D01*
X686Y6445D01*
X686Y6360D01*
X714Y6248D01*
X742Y6192D01*
X798Y6135D01*
X882Y6107D01*
X1023Y6107D01*
X4120Y3381D02*
X4120Y3756D01*
X3333Y3756D01*
X3708Y3118D02*
X3708Y2856D01*
X4120Y2743D02*
X4120Y3118D01*
X3333Y3118D01*
X3333Y2743D01*
X4120Y2406D02*
X3333Y2406D01*
X3333Y2218D01*
X3371Y2106D01*
X3446Y2031D01*
X3521Y1993D01*
X3671Y1956D01*
X3783Y1956D01*
X3933Y1993D01*
X4008Y2031D01*
X4083Y2106D01*
X4120Y2218D01*
X4120Y2406D01*
X5341Y4524D02*
X4554Y4524D01*
X5303Y4524D02*
X5341Y4599D01*
X5341Y4749D01*
X5303Y4824D01*
X5266Y4862D01*
X5191Y4899D01*
X4966Y4899D01*
X4891Y4862D01*
X4854Y4824D01*
X4816Y4749D01*
X4816Y4599D01*
X4854Y4524D01*
X5341Y4149D02*
X4816Y4149D01*
X4554Y4149D02*
X4591Y4187D01*
X4629Y4149D01*
X4591Y4112D01*
X4554Y4149D01*
X4629Y4149D01*
X5341Y3774D02*
X4816Y3774D01*
X4891Y3774D02*
X4854Y3737D01*
X4816Y3662D01*
X4816Y3549D01*
X4854Y3474D01*
X4928Y3437D01*
X5341Y3437D01*
X4928Y3437D02*
X4854Y3399D01*
X4816Y3324D01*
X4816Y3212D01*
X4854Y3137D01*
X4928Y3099D01*
X5341Y3099D01*
X5341Y2725D02*
X4816Y2725D01*
X4891Y2725D02*
X4854Y2687D01*
X4816Y2612D01*
X4816Y2500D01*
X4854Y2425D01*
X4928Y2387D01*
X5341Y2387D01*
X4928Y2387D02*
X4854Y2350D01*
X4816Y2275D01*
X4816Y2162D01*
X4854Y2087D01*
X4928Y2050D01*
X5341Y2050D01*
X5303Y1375D02*
X5341Y1450D01*
X5341Y1600D01*
X5303Y1675D01*
X5228Y1712D01*
X4928Y1712D01*
X4854Y1675D01*
X4816Y1600D01*
X4816Y1450D01*
X4854Y1375D01*
X4928Y1337D01*
X5003Y1337D01*
X5078Y1712D01*
X5341Y1000D02*
X4816Y1000D01*
X4966Y1000D02*
X4891Y962D01*
X4854Y925D01*
X4816Y850D01*
X4816Y775D01*
G54D12*
X7074Y7415D02*
X6175Y7415D01*
X3074Y7415D02*
X2175Y7415D01*
X7074Y8790D02*
X6175Y8790D01*
X6625Y8340D02*
X6625Y9240D01*
X3074Y8790D02*
X2175Y8790D01*
X2625Y8340D02*
X2625Y9240D01*
%LPC*%
G54D13*
X7875Y1281D03*
X7875Y3250D03*
X7875Y5218D03*
G54D14*
X1375Y8813D03*
X1375Y7436D03*
X7875Y7436D03*
X7875Y8813D03*
X4625Y8813D03*
X4625Y7436D03*
M02*
