%FSLAX34Y34*%
G04 Gerber Fmt 3.4, Leading zero omitted, Abs format*
G04 (created by PCBNEW (2014-01-30 BZR 4648)-product) date Thu Feb 27 15:42:02 2014*
%MOIN*%
G01*
G70*
G90*
G04 APERTURE LIST*
%ADD10C,0.013780*%
%ADD11C,0.086614*%
%ADD12C,0.078740*%
%ADD13C,0.033858*%
%ADD14C,0.012000*%
%ADD15C,0.024000*%
%ADD16C,0.013780*%
G04 APERTURE END LIST*
G54D10*
G54D11*
X7875Y1281D03*
X7875Y3250D03*
X7875Y5218D03*
G54D12*
X1375Y8813D03*
X1375Y7436D03*
X8563Y8375D03*
X7186Y8375D03*
X4625Y8813D03*
X4625Y7436D03*
G54D13*
X1125Y4000D03*
X2750Y1625D03*
X2875Y6500D03*
X2000Y2500D03*
X2375Y3625D03*
X4250Y5125D03*
X3875Y6625D03*
G54D14*
X4625Y7436D02*
X4625Y7375D01*
G54D15*
X1938Y7436D02*
X1375Y7436D01*
X2875Y6500D02*
X1938Y7436D01*
G54D14*
X2000Y3250D02*
X2000Y2500D01*
X2375Y3625D02*
X2000Y3250D01*
X5500Y7938D02*
X4625Y8813D01*
X5500Y6375D02*
X5500Y7938D01*
X4250Y5125D02*
X5500Y6375D01*
G54D15*
X1686Y8813D02*
X1375Y8813D01*
X3875Y6625D02*
X1686Y8813D01*
G54D10*
G36*
X9185Y189D02*
X9143Y189D01*
X9143Y8297D01*
X9129Y8525D01*
X9069Y8668D01*
X8985Y8712D01*
X8900Y8627D01*
X8900Y8796D01*
X8857Y8880D01*
X8641Y8954D01*
X8413Y8940D01*
X8270Y8880D01*
X8226Y8796D01*
X8563Y8459D01*
X8900Y8796D01*
X8900Y8627D01*
X8648Y8375D01*
X8985Y8037D01*
X9069Y8081D01*
X9143Y8297D01*
X9143Y189D01*
X8900Y189D01*
X8900Y7953D01*
X8563Y8290D01*
X8479Y8205D01*
X8479Y8375D01*
X8142Y8712D01*
X8057Y8668D01*
X7984Y8452D01*
X7998Y8224D01*
X8057Y8081D01*
X8142Y8037D01*
X8479Y8375D01*
X8479Y8205D01*
X8226Y7953D01*
X8270Y7869D01*
X8486Y7795D01*
X8714Y7809D01*
X8857Y7869D01*
X8900Y7953D01*
X8900Y189D01*
X8478Y189D01*
X8478Y1400D01*
X8478Y3369D01*
X8478Y5337D01*
X8386Y5559D01*
X8217Y5729D01*
X7995Y5821D01*
X7755Y5821D01*
X7749Y5819D01*
X7749Y8486D01*
X7664Y8693D01*
X7505Y8852D01*
X7298Y8938D01*
X7074Y8938D01*
X6867Y8853D01*
X6708Y8694D01*
X6622Y8487D01*
X6622Y8263D01*
X6707Y8056D01*
X6866Y7897D01*
X7073Y7811D01*
X7297Y7811D01*
X7504Y7896D01*
X7663Y8055D01*
X7749Y8262D01*
X7749Y8486D01*
X7749Y5819D01*
X7533Y5730D01*
X7364Y5560D01*
X7272Y5338D01*
X7271Y5099D01*
X7363Y4877D01*
X7532Y4707D01*
X7754Y4615D01*
X7994Y4615D01*
X8216Y4706D01*
X8385Y4876D01*
X8477Y5098D01*
X8478Y5337D01*
X8478Y3369D01*
X8386Y3591D01*
X8217Y3760D01*
X7995Y3852D01*
X7755Y3853D01*
X7533Y3761D01*
X7364Y3592D01*
X7272Y3370D01*
X7271Y3130D01*
X7363Y2908D01*
X7532Y2739D01*
X7754Y2647D01*
X7994Y2646D01*
X8216Y2738D01*
X8385Y2907D01*
X8477Y3129D01*
X8478Y3369D01*
X8478Y1400D01*
X8386Y1622D01*
X8217Y1792D01*
X7995Y1884D01*
X7755Y1884D01*
X7533Y1793D01*
X7364Y1623D01*
X7272Y1401D01*
X7271Y1162D01*
X7363Y940D01*
X7532Y770D01*
X7754Y678D01*
X7994Y678D01*
X8216Y769D01*
X8385Y939D01*
X8477Y1161D01*
X8478Y1400D01*
X8478Y189D01*
X5730Y189D01*
X5730Y7938D01*
X5712Y8026D01*
X5712Y8026D01*
X5662Y8101D01*
X5151Y8612D01*
X5188Y8701D01*
X5188Y8925D01*
X5103Y9132D01*
X4944Y9291D01*
X4737Y9377D01*
X4513Y9377D01*
X4306Y9292D01*
X4147Y9133D01*
X4061Y8926D01*
X4061Y8702D01*
X4146Y8495D01*
X4305Y8336D01*
X4512Y8250D01*
X4736Y8250D01*
X4826Y8287D01*
X5270Y7843D01*
X5270Y6470D01*
X5204Y6405D01*
X5204Y7358D01*
X5190Y7586D01*
X5130Y7729D01*
X5046Y7773D01*
X4962Y7688D01*
X4962Y7857D01*
X4918Y7942D01*
X4702Y8015D01*
X4474Y8001D01*
X4331Y7942D01*
X4287Y7857D01*
X4625Y7520D01*
X4962Y7857D01*
X4962Y7688D01*
X4709Y7436D01*
X5046Y7099D01*
X5130Y7142D01*
X5204Y7358D01*
X5204Y6405D01*
X4962Y6162D01*
X4962Y7014D01*
X4625Y7351D01*
X4540Y7266D01*
X4540Y7436D01*
X4203Y7773D01*
X4119Y7729D01*
X4045Y7513D01*
X4059Y7285D01*
X4119Y7142D01*
X4203Y7099D01*
X4540Y7436D01*
X4540Y7266D01*
X4287Y7014D01*
X4331Y6930D01*
X4547Y6856D01*
X4775Y6870D01*
X4918Y6930D01*
X4962Y7014D01*
X4962Y6162D01*
X4264Y5464D01*
X4214Y5464D01*
X4214Y6692D01*
X4162Y6816D01*
X4067Y6912D01*
X3948Y6962D01*
X1906Y9003D01*
X1853Y9132D01*
X1694Y9291D01*
X1487Y9377D01*
X1263Y9377D01*
X1056Y9292D01*
X897Y9133D01*
X811Y8926D01*
X811Y8702D01*
X896Y8495D01*
X1055Y8336D01*
X1262Y8250D01*
X1486Y8250D01*
X1693Y8335D01*
X1724Y8365D01*
X3538Y6551D01*
X3587Y6433D01*
X3682Y6337D01*
X3807Y6285D01*
X3942Y6285D01*
X4066Y6337D01*
X4162Y6432D01*
X4214Y6557D01*
X4214Y6692D01*
X4214Y5464D01*
X4182Y5464D01*
X4058Y5412D01*
X3962Y5317D01*
X3910Y5192D01*
X3910Y5057D01*
X3962Y4933D01*
X4057Y4837D01*
X4182Y4785D01*
X4317Y4785D01*
X4441Y4837D01*
X4537Y4932D01*
X4589Y5057D01*
X4589Y5139D01*
X5662Y6212D01*
X5712Y6286D01*
X5712Y6286D01*
X5730Y6375D01*
X5730Y7938D01*
X5730Y7938D01*
X5730Y7938D01*
X5730Y189D01*
X3214Y189D01*
X3214Y6567D01*
X3162Y6691D01*
X3067Y6787D01*
X2948Y6837D01*
X2144Y7641D01*
X2049Y7703D01*
X1938Y7726D01*
X1865Y7726D01*
X1853Y7754D01*
X1694Y7913D01*
X1487Y7999D01*
X1263Y7999D01*
X1056Y7914D01*
X897Y7755D01*
X811Y7548D01*
X811Y7324D01*
X896Y7117D01*
X1055Y6958D01*
X1262Y6872D01*
X1486Y6872D01*
X1693Y6957D01*
X1850Y7114D01*
X2538Y6426D01*
X2587Y6308D01*
X2682Y6212D01*
X2807Y6160D01*
X2942Y6160D01*
X3066Y6212D01*
X3162Y6307D01*
X3214Y6432D01*
X3214Y6567D01*
X3214Y189D01*
X2714Y189D01*
X2714Y3692D01*
X2662Y3816D01*
X2567Y3912D01*
X2442Y3964D01*
X2307Y3964D01*
X2183Y3912D01*
X2087Y3817D01*
X2035Y3692D01*
X2035Y3610D01*
X1837Y3412D01*
X1787Y3338D01*
X1770Y3250D01*
X1770Y2749D01*
X1712Y2692D01*
X1660Y2567D01*
X1660Y2432D01*
X1712Y2308D01*
X1807Y2212D01*
X1932Y2160D01*
X2067Y2160D01*
X2191Y2212D01*
X2287Y2307D01*
X2339Y2432D01*
X2339Y2567D01*
X2287Y2691D01*
X2230Y2749D01*
X2230Y3154D01*
X2360Y3285D01*
X2442Y3285D01*
X2566Y3337D01*
X2662Y3432D01*
X2714Y3557D01*
X2714Y3692D01*
X2714Y189D01*
X189Y189D01*
X189Y9685D01*
X9185Y9685D01*
X9185Y189D01*
X9185Y189D01*
G37*
G54D14*
X9185Y189D02*
X9143Y189D01*
X9143Y8297D01*
X9129Y8525D01*
X9069Y8668D01*
X8985Y8712D01*
X8900Y8627D01*
X8900Y8796D01*
X8857Y8880D01*
X8641Y8954D01*
X8413Y8940D01*
X8270Y8880D01*
X8226Y8796D01*
X8563Y8459D01*
X8900Y8796D01*
X8900Y8627D01*
X8648Y8375D01*
X8985Y8037D01*
X9069Y8081D01*
X9143Y8297D01*
X9143Y189D01*
X8900Y189D01*
X8900Y7953D01*
X8563Y8290D01*
X8479Y8205D01*
X8479Y8375D01*
X8142Y8712D01*
X8057Y8668D01*
X7984Y8452D01*
X7998Y8224D01*
X8057Y8081D01*
X8142Y8037D01*
X8479Y8375D01*
X8479Y8205D01*
X8226Y7953D01*
X8270Y7869D01*
X8486Y7795D01*
X8714Y7809D01*
X8857Y7869D01*
X8900Y7953D01*
X8900Y189D01*
X8478Y189D01*
X8478Y1400D01*
X8478Y3369D01*
X8478Y5337D01*
X8386Y5559D01*
X8217Y5729D01*
X7995Y5821D01*
X7755Y5821D01*
X7749Y5819D01*
X7749Y8486D01*
X7664Y8693D01*
X7505Y8852D01*
X7298Y8938D01*
X7074Y8938D01*
X6867Y8853D01*
X6708Y8694D01*
X6622Y8487D01*
X6622Y8263D01*
X6707Y8056D01*
X6866Y7897D01*
X7073Y7811D01*
X7297Y7811D01*
X7504Y7896D01*
X7663Y8055D01*
X7749Y8262D01*
X7749Y8486D01*
X7749Y5819D01*
X7533Y5730D01*
X7364Y5560D01*
X7272Y5338D01*
X7271Y5099D01*
X7363Y4877D01*
X7532Y4707D01*
X7754Y4615D01*
X7994Y4615D01*
X8216Y4706D01*
X8385Y4876D01*
X8477Y5098D01*
X8478Y5337D01*
X8478Y3369D01*
X8386Y3591D01*
X8217Y3760D01*
X7995Y3852D01*
X7755Y3853D01*
X7533Y3761D01*
X7364Y3592D01*
X7272Y3370D01*
X7271Y3130D01*
X7363Y2908D01*
X7532Y2739D01*
X7754Y2647D01*
X7994Y2646D01*
X8216Y2738D01*
X8385Y2907D01*
X8477Y3129D01*
X8478Y3369D01*
X8478Y1400D01*
X8386Y1622D01*
X8217Y1792D01*
X7995Y1884D01*
X7755Y1884D01*
X7533Y1793D01*
X7364Y1623D01*
X7272Y1401D01*
X7271Y1162D01*
X7363Y940D01*
X7532Y770D01*
X7754Y678D01*
X7994Y678D01*
X8216Y769D01*
X8385Y939D01*
X8477Y1161D01*
X8478Y1400D01*
X8478Y189D01*
X5730Y189D01*
X5730Y7938D01*
X5712Y8026D01*
X5712Y8026D01*
X5662Y8101D01*
X5151Y8612D01*
X5188Y8701D01*
X5188Y8925D01*
X5103Y9132D01*
X4944Y9291D01*
X4737Y9377D01*
X4513Y9377D01*
X4306Y9292D01*
X4147Y9133D01*
X4061Y8926D01*
X4061Y8702D01*
X4146Y8495D01*
X4305Y8336D01*
X4512Y8250D01*
X4736Y8250D01*
X4826Y8287D01*
X5270Y7843D01*
X5270Y6470D01*
X5204Y6405D01*
X5204Y7358D01*
X5190Y7586D01*
X5130Y7729D01*
X5046Y7773D01*
X4962Y7688D01*
X4962Y7857D01*
X4918Y7942D01*
X4702Y8015D01*
X4474Y8001D01*
X4331Y7942D01*
X4287Y7857D01*
X4625Y7520D01*
X4962Y7857D01*
X4962Y7688D01*
X4709Y7436D01*
X5046Y7099D01*
X5130Y7142D01*
X5204Y7358D01*
X5204Y6405D01*
X4962Y6162D01*
X4962Y7014D01*
X4625Y7351D01*
X4540Y7266D01*
X4540Y7436D01*
X4203Y7773D01*
X4119Y7729D01*
X4045Y7513D01*
X4059Y7285D01*
X4119Y7142D01*
X4203Y7099D01*
X4540Y7436D01*
X4540Y7266D01*
X4287Y7014D01*
X4331Y6930D01*
X4547Y6856D01*
X4775Y6870D01*
X4918Y6930D01*
X4962Y7014D01*
X4962Y6162D01*
X4264Y5464D01*
X4214Y5464D01*
X4214Y6692D01*
X4162Y6816D01*
X4067Y6912D01*
X3948Y6962D01*
X1906Y9003D01*
X1853Y9132D01*
X1694Y9291D01*
X1487Y9377D01*
X1263Y9377D01*
X1056Y9292D01*
X897Y9133D01*
X811Y8926D01*
X811Y8702D01*
X896Y8495D01*
X1055Y8336D01*
X1262Y8250D01*
X1486Y8250D01*
X1693Y8335D01*
X1724Y8365D01*
X3538Y6551D01*
X3587Y6433D01*
X3682Y6337D01*
X3807Y6285D01*
X3942Y6285D01*
X4066Y6337D01*
X4162Y6432D01*
X4214Y6557D01*
X4214Y6692D01*
X4214Y5464D01*
X4182Y5464D01*
X4058Y5412D01*
X3962Y5317D01*
X3910Y5192D01*
X3910Y5057D01*
X3962Y4933D01*
X4057Y4837D01*
X4182Y4785D01*
X4317Y4785D01*
X4441Y4837D01*
X4537Y4932D01*
X4589Y5057D01*
X4589Y5139D01*
X5662Y6212D01*
X5712Y6286D01*
X5712Y6286D01*
X5730Y6375D01*
X5730Y7938D01*
X5730Y7938D01*
X5730Y7938D01*
X5730Y189D01*
X3214Y189D01*
X3214Y6567D01*
X3162Y6691D01*
X3067Y6787D01*
X2948Y6837D01*
X2144Y7641D01*
X2049Y7703D01*
X1938Y7726D01*
X1865Y7726D01*
X1853Y7754D01*
X1694Y7913D01*
X1487Y7999D01*
X1263Y7999D01*
X1056Y7914D01*
X897Y7755D01*
X811Y7548D01*
X811Y7324D01*
X896Y7117D01*
X1055Y6958D01*
X1262Y6872D01*
X1486Y6872D01*
X1693Y6957D01*
X1850Y7114D01*
X2538Y6426D01*
X2587Y6308D01*
X2682Y6212D01*
X2807Y6160D01*
X2942Y6160D01*
X3066Y6212D01*
X3162Y6307D01*
X3214Y6432D01*
X3214Y6567D01*
X3214Y189D01*
X2714Y189D01*
X2714Y3692D01*
X2662Y3816D01*
X2567Y3912D01*
X2442Y3964D01*
X2307Y3964D01*
X2183Y3912D01*
X2087Y3817D01*
X2035Y3692D01*
X2035Y3610D01*
X1837Y3412D01*
X1787Y3338D01*
X1770Y3250D01*
X1770Y2749D01*
X1712Y2692D01*
X1660Y2567D01*
X1660Y2432D01*
X1712Y2308D01*
X1807Y2212D01*
X1932Y2160D01*
X2067Y2160D01*
X2191Y2212D01*
X2287Y2307D01*
X2339Y2432D01*
X2339Y2567D01*
X2287Y2691D01*
X2230Y2749D01*
X2230Y3154D01*
X2360Y3285D01*
X2442Y3285D01*
X2566Y3337D01*
X2662Y3432D01*
X2714Y3557D01*
X2714Y3692D01*
X2714Y189D01*
X189Y189D01*
X189Y9685D01*
X9185Y9685D01*
X9185Y189D01*
G54D16*
X1125Y4000D03*
X2750Y1625D03*
X2875Y6500D03*
X2000Y2500D03*
X2375Y3625D03*
X4250Y5125D03*
X3875Y6625D03*
X7875Y1281D03*
X7875Y3250D03*
X7875Y5218D03*
X1375Y8813D03*
X1375Y7436D03*
X8563Y8375D03*
X7186Y8375D03*
X4625Y8813D03*
X4625Y7436D03*
M02*
