%FSLAX34Y34*%
G04 Gerber Fmt 3.4, Leading zero omitted, Abs format*
G04 (created by PCBNEW (2014-01-30 BZR 4648)-product) date Tue Feb  4 09:45:52 2014*
%MOIN*%
G01*
G70*
G90*
G04 APERTURE LIST*
%ADD10C,0.013780*%
%ADD11C,0.086614*%
%ADD12C,0.078740*%
%ADD13C,0.027559*%
%ADD14C,0.012000*%
%ADD15C,0.024000*%
%ADD16C,0.011811*%
%ADD17C,0.013780*%
G04 APERTURE END LIST*
G54D10*
G54D11*
X7875Y1281D03*
X7875Y3250D03*
X7875Y5218D03*
G54D12*
X1375Y8813D03*
X1375Y7436D03*
X7875Y7436D03*
X7875Y8813D03*
X4625Y8813D03*
X4625Y7436D03*
G54D13*
X1125Y4000D03*
X2750Y1625D03*
X2375Y2625D03*
X1375Y1625D03*
X2875Y6500D03*
X2000Y2500D03*
X2500Y3625D03*
X3875Y6625D03*
G54D14*
X2250Y5125D02*
X3000Y5125D01*
X1125Y4000D02*
X2250Y5125D01*
X3000Y5125D02*
X4625Y6750D01*
X2750Y1625D02*
X3000Y1875D01*
X3000Y1875D02*
X3000Y5125D01*
X4625Y6750D02*
X4625Y7436D01*
X2375Y2000D02*
X2375Y2625D01*
X2125Y1750D02*
X2375Y2000D01*
X1500Y1750D02*
X2125Y1750D01*
X1375Y1625D02*
X1500Y1750D01*
G54D15*
X1938Y7436D02*
X1375Y7436D01*
X2875Y6500D02*
X1938Y7436D01*
G54D14*
X2000Y3125D02*
X2000Y2500D01*
X2500Y3625D02*
X2000Y3125D01*
G54D15*
X1686Y8813D02*
X1375Y8813D01*
X3875Y6625D02*
X1686Y8813D01*
G54D10*
G36*
X9060Y189D02*
X8478Y189D01*
X8478Y1400D01*
X8478Y3369D01*
X8478Y5337D01*
X8454Y5394D01*
X8454Y7358D01*
X8440Y7586D01*
X8438Y7589D01*
X8438Y8925D01*
X8353Y9132D01*
X8194Y9291D01*
X7987Y9377D01*
X7763Y9377D01*
X7556Y9292D01*
X7397Y9133D01*
X7311Y8926D01*
X7311Y8702D01*
X7396Y8495D01*
X7555Y8336D01*
X7762Y8250D01*
X7986Y8250D01*
X8193Y8335D01*
X8352Y8494D01*
X8438Y8701D01*
X8438Y8925D01*
X8438Y7589D01*
X8380Y7729D01*
X8296Y7773D01*
X8212Y7688D01*
X8212Y7857D01*
X8168Y7942D01*
X7952Y8015D01*
X7724Y8001D01*
X7581Y7942D01*
X7537Y7857D01*
X7875Y7520D01*
X8212Y7857D01*
X8212Y7688D01*
X7959Y7436D01*
X8296Y7099D01*
X8380Y7142D01*
X8454Y7358D01*
X8454Y5394D01*
X8386Y5559D01*
X8217Y5729D01*
X8212Y5731D01*
X8212Y7014D01*
X7875Y7351D01*
X7790Y7266D01*
X7790Y7436D01*
X7453Y7773D01*
X7369Y7729D01*
X7295Y7513D01*
X7309Y7285D01*
X7369Y7142D01*
X7453Y7099D01*
X7790Y7436D01*
X7790Y7266D01*
X7537Y7014D01*
X7581Y6930D01*
X7797Y6856D01*
X8025Y6870D01*
X8168Y6930D01*
X8212Y7014D01*
X8212Y5731D01*
X7995Y5821D01*
X7755Y5821D01*
X7533Y5730D01*
X7364Y5560D01*
X7272Y5338D01*
X7271Y5099D01*
X7363Y4877D01*
X7532Y4707D01*
X7754Y4615D01*
X7994Y4615D01*
X8216Y4706D01*
X8385Y4876D01*
X8477Y5098D01*
X8478Y5337D01*
X8478Y3369D01*
X8386Y3591D01*
X8217Y3760D01*
X7995Y3852D01*
X7755Y3853D01*
X7533Y3761D01*
X7364Y3592D01*
X7272Y3370D01*
X7271Y3130D01*
X7363Y2908D01*
X7532Y2739D01*
X7754Y2647D01*
X7994Y2646D01*
X8216Y2738D01*
X8385Y2907D01*
X8477Y3129D01*
X8478Y3369D01*
X8478Y1400D01*
X8386Y1622D01*
X8217Y1792D01*
X7995Y1884D01*
X7755Y1884D01*
X7533Y1793D01*
X7364Y1623D01*
X7272Y1401D01*
X7271Y1162D01*
X7363Y940D01*
X7532Y770D01*
X7754Y678D01*
X7994Y678D01*
X8216Y769D01*
X8385Y939D01*
X8477Y1161D01*
X8478Y1400D01*
X8478Y189D01*
X5204Y189D01*
X5204Y7358D01*
X5190Y7586D01*
X5188Y7589D01*
X5188Y8925D01*
X5103Y9132D01*
X4944Y9291D01*
X4737Y9377D01*
X4513Y9377D01*
X4306Y9292D01*
X4147Y9133D01*
X4061Y8926D01*
X4061Y8702D01*
X4146Y8495D01*
X4305Y8336D01*
X4512Y8250D01*
X4736Y8250D01*
X4943Y8335D01*
X5102Y8494D01*
X5188Y8701D01*
X5188Y8925D01*
X5188Y7589D01*
X5130Y7729D01*
X5046Y7773D01*
X4962Y7688D01*
X4962Y7857D01*
X4918Y7942D01*
X4702Y8015D01*
X4474Y8001D01*
X4331Y7942D01*
X4287Y7857D01*
X4625Y7520D01*
X4962Y7857D01*
X4962Y7688D01*
X4709Y7436D01*
X5046Y7099D01*
X5130Y7142D01*
X5204Y7358D01*
X5204Y189D01*
X4962Y189D01*
X4962Y7014D01*
X4625Y7351D01*
X4540Y7266D01*
X4540Y7436D01*
X4203Y7773D01*
X4119Y7729D01*
X4045Y7513D01*
X4059Y7285D01*
X4119Y7142D01*
X4203Y7099D01*
X4540Y7436D01*
X4540Y7266D01*
X4287Y7014D01*
X4331Y6930D01*
X4547Y6856D01*
X4775Y6870D01*
X4918Y6930D01*
X4962Y7014D01*
X4962Y189D01*
X4182Y189D01*
X4182Y6685D01*
X4136Y6799D01*
X4049Y6885D01*
X4006Y6903D01*
X1906Y9003D01*
X1853Y9132D01*
X1694Y9291D01*
X1487Y9377D01*
X1263Y9377D01*
X1056Y9292D01*
X897Y9133D01*
X811Y8926D01*
X811Y8702D01*
X896Y8495D01*
X1055Y8336D01*
X1262Y8250D01*
X1486Y8250D01*
X1693Y8335D01*
X1724Y8365D01*
X3596Y6493D01*
X3613Y6450D01*
X3700Y6364D01*
X3813Y6317D01*
X3935Y6317D01*
X4049Y6363D01*
X4135Y6450D01*
X4182Y6563D01*
X4182Y6685D01*
X4182Y189D01*
X3182Y189D01*
X3182Y6560D01*
X3136Y6674D01*
X3049Y6760D01*
X3006Y6778D01*
X2144Y7641D01*
X2049Y7703D01*
X1938Y7726D01*
X1865Y7726D01*
X1853Y7754D01*
X1694Y7913D01*
X1487Y7999D01*
X1263Y7999D01*
X1056Y7914D01*
X897Y7755D01*
X811Y7548D01*
X811Y7324D01*
X896Y7117D01*
X1055Y6958D01*
X1262Y6872D01*
X1486Y6872D01*
X1693Y6957D01*
X1850Y7114D01*
X2596Y6368D01*
X2613Y6325D01*
X2700Y6239D01*
X2813Y6192D01*
X2935Y6192D01*
X3049Y6238D01*
X3135Y6325D01*
X3182Y6438D01*
X3182Y6560D01*
X3182Y189D01*
X2807Y189D01*
X2807Y3685D01*
X2761Y3799D01*
X2674Y3885D01*
X2561Y3932D01*
X2439Y3932D01*
X2325Y3886D01*
X2239Y3799D01*
X2192Y3686D01*
X2192Y3642D01*
X1837Y3287D01*
X1787Y3213D01*
X1770Y3125D01*
X1770Y2705D01*
X1739Y2674D01*
X1692Y2561D01*
X1692Y2439D01*
X1738Y2325D01*
X1825Y2239D01*
X1938Y2192D01*
X2060Y2192D01*
X2145Y2226D01*
X2145Y2095D01*
X2029Y1980D01*
X1500Y1980D01*
X1411Y1962D01*
X1367Y1932D01*
X1314Y1932D01*
X1200Y1886D01*
X1114Y1799D01*
X1067Y1686D01*
X1067Y1564D01*
X1113Y1450D01*
X1200Y1364D01*
X1313Y1317D01*
X1435Y1317D01*
X1549Y1363D01*
X1635Y1450D01*
X1664Y1520D01*
X2125Y1520D01*
X2213Y1537D01*
X2213Y1537D01*
X2287Y1587D01*
X2537Y1837D01*
X2587Y1911D01*
X2587Y1911D01*
X2605Y2000D01*
X2605Y2000D01*
X2605Y2000D01*
X2605Y2419D01*
X2635Y2450D01*
X2682Y2563D01*
X2682Y2685D01*
X2636Y2799D01*
X2549Y2885D01*
X2436Y2932D01*
X2314Y2932D01*
X2230Y2898D01*
X2230Y3029D01*
X2517Y3317D01*
X2560Y3317D01*
X2674Y3363D01*
X2760Y3450D01*
X2807Y3563D01*
X2807Y3685D01*
X2807Y189D01*
X189Y189D01*
X189Y9685D01*
X9060Y9685D01*
X9060Y189D01*
X9060Y189D01*
G37*
G54D14*
X9060Y189D02*
X8478Y189D01*
X8478Y1400D01*
X8478Y3369D01*
X8478Y5337D01*
X8454Y5394D01*
X8454Y7358D01*
X8440Y7586D01*
X8438Y7589D01*
X8438Y8925D01*
X8353Y9132D01*
X8194Y9291D01*
X7987Y9377D01*
X7763Y9377D01*
X7556Y9292D01*
X7397Y9133D01*
X7311Y8926D01*
X7311Y8702D01*
X7396Y8495D01*
X7555Y8336D01*
X7762Y8250D01*
X7986Y8250D01*
X8193Y8335D01*
X8352Y8494D01*
X8438Y8701D01*
X8438Y8925D01*
X8438Y7589D01*
X8380Y7729D01*
X8296Y7773D01*
X8212Y7688D01*
X8212Y7857D01*
X8168Y7942D01*
X7952Y8015D01*
X7724Y8001D01*
X7581Y7942D01*
X7537Y7857D01*
X7875Y7520D01*
X8212Y7857D01*
X8212Y7688D01*
X7959Y7436D01*
X8296Y7099D01*
X8380Y7142D01*
X8454Y7358D01*
X8454Y5394D01*
X8386Y5559D01*
X8217Y5729D01*
X8212Y5731D01*
X8212Y7014D01*
X7875Y7351D01*
X7790Y7266D01*
X7790Y7436D01*
X7453Y7773D01*
X7369Y7729D01*
X7295Y7513D01*
X7309Y7285D01*
X7369Y7142D01*
X7453Y7099D01*
X7790Y7436D01*
X7790Y7266D01*
X7537Y7014D01*
X7581Y6930D01*
X7797Y6856D01*
X8025Y6870D01*
X8168Y6930D01*
X8212Y7014D01*
X8212Y5731D01*
X7995Y5821D01*
X7755Y5821D01*
X7533Y5730D01*
X7364Y5560D01*
X7272Y5338D01*
X7271Y5099D01*
X7363Y4877D01*
X7532Y4707D01*
X7754Y4615D01*
X7994Y4615D01*
X8216Y4706D01*
X8385Y4876D01*
X8477Y5098D01*
X8478Y5337D01*
X8478Y3369D01*
X8386Y3591D01*
X8217Y3760D01*
X7995Y3852D01*
X7755Y3853D01*
X7533Y3761D01*
X7364Y3592D01*
X7272Y3370D01*
X7271Y3130D01*
X7363Y2908D01*
X7532Y2739D01*
X7754Y2647D01*
X7994Y2646D01*
X8216Y2738D01*
X8385Y2907D01*
X8477Y3129D01*
X8478Y3369D01*
X8478Y1400D01*
X8386Y1622D01*
X8217Y1792D01*
X7995Y1884D01*
X7755Y1884D01*
X7533Y1793D01*
X7364Y1623D01*
X7272Y1401D01*
X7271Y1162D01*
X7363Y940D01*
X7532Y770D01*
X7754Y678D01*
X7994Y678D01*
X8216Y769D01*
X8385Y939D01*
X8477Y1161D01*
X8478Y1400D01*
X8478Y189D01*
X5204Y189D01*
X5204Y7358D01*
X5190Y7586D01*
X5188Y7589D01*
X5188Y8925D01*
X5103Y9132D01*
X4944Y9291D01*
X4737Y9377D01*
X4513Y9377D01*
X4306Y9292D01*
X4147Y9133D01*
X4061Y8926D01*
X4061Y8702D01*
X4146Y8495D01*
X4305Y8336D01*
X4512Y8250D01*
X4736Y8250D01*
X4943Y8335D01*
X5102Y8494D01*
X5188Y8701D01*
X5188Y8925D01*
X5188Y7589D01*
X5130Y7729D01*
X5046Y7773D01*
X4962Y7688D01*
X4962Y7857D01*
X4918Y7942D01*
X4702Y8015D01*
X4474Y8001D01*
X4331Y7942D01*
X4287Y7857D01*
X4625Y7520D01*
X4962Y7857D01*
X4962Y7688D01*
X4709Y7436D01*
X5046Y7099D01*
X5130Y7142D01*
X5204Y7358D01*
X5204Y189D01*
X4962Y189D01*
X4962Y7014D01*
X4625Y7351D01*
X4540Y7266D01*
X4540Y7436D01*
X4203Y7773D01*
X4119Y7729D01*
X4045Y7513D01*
X4059Y7285D01*
X4119Y7142D01*
X4203Y7099D01*
X4540Y7436D01*
X4540Y7266D01*
X4287Y7014D01*
X4331Y6930D01*
X4547Y6856D01*
X4775Y6870D01*
X4918Y6930D01*
X4962Y7014D01*
X4962Y189D01*
X4182Y189D01*
X4182Y6685D01*
X4136Y6799D01*
X4049Y6885D01*
X4006Y6903D01*
X1906Y9003D01*
X1853Y9132D01*
X1694Y9291D01*
X1487Y9377D01*
X1263Y9377D01*
X1056Y9292D01*
X897Y9133D01*
X811Y8926D01*
X811Y8702D01*
X896Y8495D01*
X1055Y8336D01*
X1262Y8250D01*
X1486Y8250D01*
X1693Y8335D01*
X1724Y8365D01*
X3596Y6493D01*
X3613Y6450D01*
X3700Y6364D01*
X3813Y6317D01*
X3935Y6317D01*
X4049Y6363D01*
X4135Y6450D01*
X4182Y6563D01*
X4182Y6685D01*
X4182Y189D01*
X3182Y189D01*
X3182Y6560D01*
X3136Y6674D01*
X3049Y6760D01*
X3006Y6778D01*
X2144Y7641D01*
X2049Y7703D01*
X1938Y7726D01*
X1865Y7726D01*
X1853Y7754D01*
X1694Y7913D01*
X1487Y7999D01*
X1263Y7999D01*
X1056Y7914D01*
X897Y7755D01*
X811Y7548D01*
X811Y7324D01*
X896Y7117D01*
X1055Y6958D01*
X1262Y6872D01*
X1486Y6872D01*
X1693Y6957D01*
X1850Y7114D01*
X2596Y6368D01*
X2613Y6325D01*
X2700Y6239D01*
X2813Y6192D01*
X2935Y6192D01*
X3049Y6238D01*
X3135Y6325D01*
X3182Y6438D01*
X3182Y6560D01*
X3182Y189D01*
X2807Y189D01*
X2807Y3685D01*
X2761Y3799D01*
X2674Y3885D01*
X2561Y3932D01*
X2439Y3932D01*
X2325Y3886D01*
X2239Y3799D01*
X2192Y3686D01*
X2192Y3642D01*
X1837Y3287D01*
X1787Y3213D01*
X1770Y3125D01*
X1770Y2705D01*
X1739Y2674D01*
X1692Y2561D01*
X1692Y2439D01*
X1738Y2325D01*
X1825Y2239D01*
X1938Y2192D01*
X2060Y2192D01*
X2145Y2226D01*
X2145Y2095D01*
X2029Y1980D01*
X1500Y1980D01*
X1411Y1962D01*
X1367Y1932D01*
X1314Y1932D01*
X1200Y1886D01*
X1114Y1799D01*
X1067Y1686D01*
X1067Y1564D01*
X1113Y1450D01*
X1200Y1364D01*
X1313Y1317D01*
X1435Y1317D01*
X1549Y1363D01*
X1635Y1450D01*
X1664Y1520D01*
X2125Y1520D01*
X2213Y1537D01*
X2213Y1537D01*
X2287Y1587D01*
X2537Y1837D01*
X2587Y1911D01*
X2587Y1911D01*
X2605Y2000D01*
X2605Y2000D01*
X2605Y2000D01*
X2605Y2419D01*
X2635Y2450D01*
X2682Y2563D01*
X2682Y2685D01*
X2636Y2799D01*
X2549Y2885D01*
X2436Y2932D01*
X2314Y2932D01*
X2230Y2898D01*
X2230Y3029D01*
X2517Y3317D01*
X2560Y3317D01*
X2674Y3363D01*
X2760Y3450D01*
X2807Y3563D01*
X2807Y3685D01*
X2807Y189D01*
X189Y189D01*
X189Y9685D01*
X9060Y9685D01*
X9060Y189D01*
G54D16*
X1125Y4000D03*
X2750Y1625D03*
X2375Y2625D03*
X1375Y1625D03*
X2875Y6500D03*
X2000Y2500D03*
X2500Y3625D03*
X3875Y6625D03*
G54D17*
X7875Y1281D03*
X7875Y3250D03*
X7875Y5218D03*
X1375Y8813D03*
X1375Y7436D03*
X7875Y7436D03*
X7875Y8813D03*
X4625Y8813D03*
X4625Y7436D03*
M02*
